<svg xmlns="http://www.w3.org/2000/svg" xmlns:xlink="http://www.w3.org/1999/xlink" version="1.1" id="Layer_1" x="0px" y="0px" width="100%" viewBox="0 0 364 475" enable-background="new 0 0 364 475" xml:space="preserve">
<path fill="#FEFEFE" opacity="0" stroke="none" d=" M1.000000,168.000000   C1.000000,112.016525 1.000000,56.533054 1.000000,1.024791   C122.280663,1.024791 243.561340,1.024791 364.921021,1.024791   C364.921021,159.233490 364.921021,317.467041 364.921021,475.850281   C243.666794,475.850281 122.333427,475.850281 1.000000,475.850281   C1.000000,373.438629 1.000000,270.969330 1.000000,168.000000  M149.579758,10.998899   C139.791122,12.521372 129.522751,12.010012 120.520668,17.756401   C149.304550,23.916473 177.710632,30.370890 198.987335,54.194016   C196.538177,54.835255 194.697998,55.544670 192.800003,55.772461   C186.410751,56.539288 179.985687,57.014107 173.601852,57.818836   C155.861649,60.055103 138.699554,64.818871 122.966545,73.144272   C64.509262,104.077950 31.967827,153.101349 24.142624,218.452682   C21.272223,242.424515 23.856478,266.216736 30.704069,289.437866   C41.083935,324.637390 60.644817,353.965057 88.065910,378.112671   C122.243156,408.209961 162.654984,420.763702 207.532883,417.712372   C234.106339,415.905548 259.384766,408.342163 282.068390,393.251190   C295.634308,384.226013 308.317444,374.352722 319.291199,362.321655   C322.362183,358.954803 325.265198,355.435272 328.280182,352.016541   C330.619995,349.363342 332.881500,349.285614 335.287170,352.096497   C337.834930,355.073364 340.481598,357.983337 343.281525,360.721588   C346.041565,363.420898 349.047638,365.868622 351.945801,368.426727   C352.437866,368.192078 352.929932,367.957458 353.421997,367.722809   C356.311310,335.512268 359.200653,303.301727 362.171448,270.182861   C331.914856,285.414490 302.518280,300.213226 271.768646,315.693085   C280.970703,319.844757 289.056549,323.492828 297.142365,327.140869   C297.546753,327.898102 297.951111,328.655334 298.355499,329.412537   C293.988953,333.083740 289.474457,336.594482 285.284790,340.457520   C274.611145,350.298950 263.169495,358.939545 249.962585,365.203094   C237.540833,371.094299 224.531738,375.071320 210.977966,376.687286   C201.158752,377.857941 190.904007,379.189453 181.320038,377.591309   C168.200546,375.403625 154.978485,372.990967 142.648376,366.657654   C131.337189,360.847687 121.029869,353.767578 111.625114,345.621429   C103.551910,338.628693 96.570511,330.167450 90.058754,321.629181   C80.491295,309.084198 73.563484,294.850555 69.367256,279.715179   C65.001442,263.968048 63.053715,247.751434 63.902821,231.227066   C64.783722,214.084030 67.455933,197.458633 74.178040,181.547150   C81.289238,164.714630 90.892128,149.633713 103.708084,136.522537   C120.636269,119.204399 140.625763,107.066284 163.878632,100.515213   C175.791336,97.159035 187.949539,95.093040 200.372757,98.411362   C195.568161,116.817268 179.854340,126.102448 166.881195,139.465851   C170.118484,139.248672 171.854279,139.210648 173.569855,139.004288   C183.947510,137.755981 194.292633,135.754608 204.701096,135.348160   C224.669418,134.568420 244.386826,136.878296 263.385101,143.473923   C293.737762,154.011459 322.339233,168.246368 349.839722,184.781784   C351.637848,185.862976 353.737427,186.739914 355.781433,186.974625   C356.646484,187.073944 358.596313,185.241333 358.571991,184.326218   C358.435181,179.184494 358.118042,174.014404 357.360443,168.928757   C355.295319,155.065994 353.525665,141.124405 350.613464,127.432152   C347.508575,112.833900 342.330750,98.874092 335.686554,85.379776   C327.401642,68.553116 317.507874,52.793766 303.388641,40.572964   C293.467804,31.986067 281.752319,25.421537 270.578033,18.365948   C267.339172,16.320864 263.201843,15.698647 259.476410,14.424163   C259.199829,14.922891 258.923279,15.421619 258.646698,15.920347   C273.823486,36.536621 288.495270,57.387321 291.284607,83.850548   C286.829895,85.020546 285.025208,82.234360 283.210022,79.592911   C272.489044,63.991745 260.986176,49.313976 245.562653,37.709587   C228.275513,24.703030 209.296432,15.934653 188.206787,12.598610   C175.864975,10.646336 163.089172,11.437572 149.579758,10.998899  M13.302637,275.634796   C11.703685,266.238770 10.104733,256.842773 8.505780,247.446747   C4.755789,283.235992 11.274543,317.253357 28.214371,348.787964   C60.159058,408.255035 110.361000,440.769684 178.295670,446.740234   C160.133377,457.140198 140.676086,458.193817 121.652267,460.965149   C186.626450,482.133728 239.761368,460.973938 286.305206,414.072693   C283.730682,431.871735 273.816162,445.848602 265.560822,460.900146   C293.629730,453.146790 337.163269,398.401184 332.211914,364.531799   C320.111359,372.910431 320.241486,388.153412 312.216888,398.550781   C312.199249,396.126038 312.915924,393.963348 313.177521,391.746948   C313.435822,389.558228 313.233948,387.315155 313.233948,385.095947   C312.779694,384.751282 312.325439,384.406647 311.871155,384.061981   C284.931244,401.862396 257.991302,419.662842 231.314728,437.289276   C234.019852,433.336639 236.884888,429.150330 240.383347,424.038513   C236.766129,424.038513 234.708908,423.649811 232.855377,424.099915   C217.764359,427.764465 202.429596,428.937225 186.966934,428.755737   C180.504761,428.679932 173.985657,428.710388 167.604538,427.855560   C161.661530,427.059479 155.831833,425.282593 150.017487,423.698120   C143.940933,422.042206 137.710449,420.637848 131.963699,418.158295   C123.313004,414.425842 114.651009,410.454437 106.673233,405.492279   C95.868660,398.771912 84.970825,391.852417 75.474770,383.474762   C65.827896,374.964142 57.003616,365.194092 49.343040,354.847260   C41.001812,343.581146 33.158653,331.585114 27.402735,318.864563   C21.290871,305.357422 17.884180,290.626190 13.302637,275.634796  z"/>
<path fill="#870216" opacity="1.000000" stroke="none" d=" M150.044189,10.996758   C163.089172,11.437572 175.864975,10.646336 188.206787,12.598610   C209.296432,15.934653 228.275513,24.703030 245.562653,37.709587   C260.986176,49.313976 272.489044,63.991745 283.210022,79.592911   C285.025208,82.234360 286.829895,85.020546 291.284607,83.850548   C288.495270,57.387321 273.823486,36.536621 258.646698,15.920347   C258.923279,15.421619 259.199829,14.922891 259.476410,14.424163   C263.201843,15.698647 267.339172,16.320864 270.578033,18.365948   C281.752319,25.421537 293.467804,31.986067 303.388641,40.572964   C317.507874,52.793766 327.401642,68.553116 335.686554,85.379776   C342.330750,98.874092 347.508575,112.833900 350.613464,127.432152   C353.525665,141.124405 355.295319,155.065994 357.360443,168.928757   C358.118042,174.014404 358.435181,179.184494 358.571991,184.326218   C358.596313,185.241333 356.646484,187.073944 355.781433,186.974625   C353.737427,186.739914 351.637848,185.862976 349.839722,184.781784   C322.339233,168.246368 293.737762,154.011459 263.385101,143.473923   C244.386826,136.878296 224.669418,134.568420 204.701096,135.348160   C194.292633,135.754608 183.947510,137.755981 173.569855,139.004288   C171.854279,139.210648 170.118484,139.248672 166.881195,139.465851   C179.854340,126.102448 195.568161,116.817268 200.372757,98.411362   C187.949539,95.093040 175.791336,97.159035 163.878632,100.515213   C140.625763,107.066284 120.636269,119.204399 103.708084,136.522537   C90.892128,149.633713 81.289238,164.714630 74.178040,181.547150   C67.455933,197.458633 64.783722,214.084030 63.902821,231.227066   C63.053715,247.751434 65.001442,263.968048 69.367256,279.715179   C73.563484,294.850555 80.491295,309.084198 90.058754,321.629181   C96.570511,330.167450 103.551910,338.628693 111.625114,345.621429   C121.029869,353.767578 131.337189,360.847687 142.648376,366.657654   C154.978485,372.990967 168.200546,375.403625 181.320038,377.591309   C190.904007,379.189453 201.158752,377.857941 210.977966,376.687286   C224.531738,375.071320 237.540833,371.094299 249.962585,365.203094   C263.169495,358.939545 274.611145,350.298950 285.284790,340.457520   C289.474457,336.594482 293.988953,333.083740 298.355499,329.412537   C297.951111,328.655334 297.546753,327.898102 297.142365,327.140869   C289.056549,323.492828 280.970703,319.844757 271.768646,315.693085   C302.518280,300.213226 331.914856,285.414490 362.171448,270.182861   C359.200653,303.301727 356.311310,335.512268 353.421997,367.722809   C352.929932,367.957458 352.437866,368.192078 351.945801,368.426727   C349.047638,365.868622 346.041565,363.420898 343.281525,360.721588   C340.481598,357.983337 337.834930,355.073364 335.287170,352.096497   C332.881500,349.285614 330.619995,349.363342 328.280182,352.016541   C325.265198,355.435272 322.362183,358.954803 319.291199,362.321655   C308.317444,374.352722 295.634308,384.226013 282.068390,393.251190   C259.384766,408.342163 234.106339,415.905548 207.532883,417.712372   C162.654984,420.763702 122.243156,408.209961 88.065910,378.112671   C60.644817,353.965057 41.083935,324.637390 30.704069,289.437866   C23.856478,266.216736 21.272223,242.424515 24.142624,218.452682   C31.967827,153.101349 64.509262,104.077950 122.966545,73.144272   C138.699554,64.818871 155.861649,60.055103 173.601852,57.818836   C179.985687,57.014107 186.410751,56.539288 192.800003,55.772461   C194.697998,55.544670 196.538177,54.835255 198.987335,54.194016   C177.710632,30.370890 149.304550,23.916473 120.520668,17.756401   C129.522751,12.010012 139.791122,12.521372 150.044189,10.996758  M221.433273,120.888405   C221.807434,121.290024 222.169708,122.030228 222.557495,122.043846   C232.742920,122.401321 242.929779,122.741615 253.119095,122.956406   C258.972168,123.079781 264.829956,122.978767 270.685638,122.978767   C270.839386,122.471107 270.993134,121.963448 271.146881,121.455788   C263.345703,116.837631 255.686798,111.942757 247.638519,107.805305   C245.741150,106.829910 242.133347,107.713181 240.001923,108.939682   C233.840729,112.485046 228.030899,116.641014 221.433273,120.888405  M334.776459,115.607811   C329.761017,99.064575 322.312531,83.759010 311.389191,70.162895   C320.399475,89.888031 320.462067,113.016403 335.773743,131.971237   C336.673492,129.495514 337.933838,127.786789 337.699921,126.315659   C337.165497,122.954422 335.899902,119.709450 334.776459,115.607811  M249.118469,65.460785   C252.209885,66.499985 255.301315,67.539192 258.392731,68.578392   C251.140198,55.881050 232.363388,41.318893 224.039917,40.509045   C228.865707,45.989758 233.474426,51.585236 238.492126,56.786152   C241.471329,59.874146 245.094879,62.340496 249.118469,65.460785  z"/>
<path fill="#870418" opacity="1.000000" stroke="none" d=" M13.299398,276.032166   C17.884180,290.626190 21.290871,305.357422 27.402735,318.864563   C33.158653,331.585114 41.001812,343.581146 49.343040,354.847260   C57.003616,365.194092 65.827896,374.964142 75.474770,383.474762   C84.970825,391.852417 95.868660,398.771912 106.673233,405.492279   C114.651009,410.454437 123.313004,414.425842 131.963699,418.158295   C137.710449,420.637848 143.940933,422.042206 150.017487,423.698120   C155.831833,425.282593 161.661530,427.059479 167.604538,427.855560   C173.985657,428.710388 180.504761,428.679932 186.966934,428.755737   C202.429596,428.937225 217.764359,427.764465 232.855377,424.099915   C234.708908,423.649811 236.766129,424.038513 240.383347,424.038513   C236.884888,429.150330 234.019852,433.336639 231.314728,437.289276   C257.991302,419.662842 284.931244,401.862396 311.871155,384.061981   C312.325439,384.406647 312.779694,384.751282 313.233948,385.095947   C313.233948,387.315155 313.435822,389.558228 313.177521,391.746948   C312.915924,393.963348 312.199249,396.126038 312.216888,398.550781   C320.241486,388.153412 320.111359,372.910431 332.211914,364.531799   C337.163269,398.401184 293.629730,453.146790 265.560822,460.900146   C273.816162,445.848602 283.730682,431.871735 286.305206,414.072693   C239.761368,460.973938 186.626450,482.133728 121.652267,460.965149   C140.676086,458.193817 160.133377,457.140198 178.295670,446.740234   C110.361000,440.769684 60.159058,408.255035 28.214371,348.787964   C11.274543,317.253357 4.755789,283.235992 8.505780,247.446747   C10.104733,256.842773 11.703685,266.238770 13.299398,276.032166  z"/>
<path fill="#F8F8F8" opacity="0" stroke="none" d=" M221.758209,120.722839   C228.030899,116.641014 233.840729,112.485046 240.001923,108.939682   C242.133347,107.713181 245.741150,106.829910 247.638519,107.805305   C255.686798,111.942757 263.345703,116.837631 271.146881,121.455788   C270.993134,121.963448 270.839386,122.471107 270.685638,122.978767   C264.829956,122.978767 258.972168,123.079781 253.119095,122.956406   C242.929779,122.741615 232.742920,122.401321 222.557495,122.043846   C222.169708,122.030228 221.807434,121.290024 221.758209,120.722839  z"/>
<path fill="#F4F4F4" opacity="0" stroke="none" d=" M334.853882,116.012527   C335.899902,119.709450 337.165497,122.954422 337.699921,126.315659   C337.933838,127.786789 336.673492,129.495514 335.773743,131.971237   C320.462067,113.016403 320.399475,89.888031 311.389191,70.162895   C322.312531,83.759010 329.761017,99.064575 334.853882,116.012527  z"/>
<path fill="#F6F6F6" opacity="0" stroke="none" d=" M248.773590,65.273560   C245.094879,62.340496 241.471329,59.874146 238.492126,56.786152   C233.474426,51.585236 228.865707,45.989758 224.039917,40.509045   C232.363388,41.318893 251.140198,55.881050 258.392731,68.578392   C255.301315,67.539192 252.209885,66.499985 248.773590,65.273560  z"/>
</svg>