<svg version="1.1" id="Layer_1" xmlns="http://www.w3.org/2000/svg" xmlns:xlink="http://www.w3.org/1999/xlink" x="0px" y="0px"
	 width="100%" viewBox="0 0 1024 544" enable-background="new 0 0 1024 544" xml:space="preserve">
<path fill="#000000" opacity="1.000000" stroke="none" 
	d="
M208.806152,354.675934 
	C231.123871,353.197723 248.453522,343.242767 262.733643,326.584991 
	C258.695465,323.143890 253.344330,323.362732 248.778229,319.563721 
	C265.541901,311.144562 281.587494,303.085999 299.040649,294.320526 
	C297.335022,313.568329 295.766632,331.267181 294.143097,349.588257 
	C288.657745,346.806854 286.313934,341.862091 282.280579,338.785187 
	C279.996948,339.275726 279.188568,341.299652 277.935577,342.744934 
	C258.803314,364.814148 234.946457,377.196655 205.473907,377.225647 
	C176.581314,377.254059 152.906586,365.426514 134.122559,343.754761 
	C93.473167,296.856293 102.955170,224.167267 154.100464,189.826950 
	C168.705185,180.020966 184.901001,175.035736 202.389786,174.017929 
	C203.552124,173.950287 204.716858,173.891296 205.871918,173.755402 
	C206.139725,173.723877 206.372330,173.393143 207.281799,172.687469 
	C195.626846,159.443161 179.635590,156.004105 162.915833,152.642410 
	C165.801758,150.137421 168.699402,150.159546 171.337997,149.755707 
	C207.091980,144.283615 235.049133,156.309036 254.617493,187.039398 
	C255.600479,188.583130 256.629211,190.121307 259.549835,190.176376 
	C257.512665,174.337372 248.867645,162.027176 239.706100,149.808044 
	C255.071533,154.746506 267.083679,164.019592 276.259247,176.851868 
	C291.364502,197.976990 295.417877,222.400345 297.301117,247.440842 
	C294.382568,248.358032 292.935913,246.644333 291.293884,245.694611 
	C277.003693,237.429382 262.446350,229.757980 246.861725,224.126633 
	C229.467422,217.841385 211.776001,216.997360 193.749817,220.499100 
	C192.649963,220.712769 191.585800,221.503937 189.796722,220.367538 
	C196.618210,213.436829 205.691803,208.349045 208.353683,197.787476 
	C203.337952,196.234756 198.477173,196.818039 193.858643,197.623718 
	C161.721100,203.230072 135.669220,231.762192 132.178345,264.566772 
	C128.824646,296.082214 138.981537,321.938354 164.320435,341.268127 
	C177.220627,351.109070 192.113831,355.297638 208.806152,354.675934 
M245.198990,209.023590 
	C241.913101,207.100555 238.644745,205.146622 235.333466,203.268372 
	C233.830978,202.416122 232.219009,201.961044 230.719299,203.298981 
	C227.363815,206.292480 223.407013,208.447830 218.571823,211.386246 
	C229.012253,210.365524 238.178543,210.987549 248.581909,211.743484 
	C246.925552,210.367645 246.326462,209.870026 245.198990,209.023590 
M283.945465,215.939667 
	C285.848846,215.489639 285.971649,215.456070 285.397827,213.357407 
	C282.232239,201.779602 277.927612,190.723328 269.811493,180.397369 
	C271.581299,185.442108 272.982849,189.625336 274.514130,193.760559 
	C277.238098,201.116821 277.408112,209.541306 283.945465,215.939667 
M239.088623,180.608398 
	C239.871201,180.786346 240.653793,180.964294 242.096008,181.292236 
	C235.962936,173.463913 229.044418,167.669205 220.203751,164.190063 
	C222.608032,167.165604 225.511230,169.623795 228.139053,172.347702 
	C231.222397,175.543808 233.544067,179.630630 239.088623,180.608398 
z"/>
<path fill="#000000" opacity="1.000000" stroke="none" 
	d="
M452.949219,313.998749 
	C452.957489,318.994659 452.931580,323.491455 452.989594,327.987152 
	C453.029510,331.083740 451.766144,332.492310 448.494598,332.394836 
	C442.504364,332.216431 436.500641,332.177979 430.511993,332.372009 
	C426.850616,332.490662 425.525299,331.158630 425.570160,327.461487 
	C425.723755,314.806641 425.622925,302.148682 425.619690,289.491913 
	C425.613861,266.842957 425.713684,244.193100 425.515106,221.545837 
	C425.474854,216.953888 426.952698,215.540375 431.505829,215.599274 
	C448.989319,215.825455 466.478088,215.617828 483.963043,215.775436 
	C488.093842,215.812668 492.308197,216.249283 496.328003,217.177963 
	C510.563965,220.466782 518.898376,229.551102 520.782898,244.002869 
	C522.513062,257.270782 521.614136,270.027557 510.806549,279.946869 
	C508.208954,282.331024 504.937805,283.653625 501.473877,285.881470 
	C509.222748,301.062286 516.879639,316.062958 525.116638,332.200043 
	C514.680786,332.200043 505.612061,332.289032 496.547211,332.140015 
	C494.158997,332.100769 493.621643,329.618835 492.763702,327.905701 
	C486.949036,316.294891 481.128448,304.685150 475.520477,292.974152 
	C474.186462,290.188324 472.585663,288.854889 469.445587,289.027740 
	C465.626465,289.238007 461.782501,289.215729 457.958801,289.060150 
	C454.360901,288.913757 452.826996,290.324219 452.919495,294.015656 
	C453.082123,300.506348 452.955994,307.004242 452.949219,313.998749 
M484.455017,266.344757 
	C492.317810,263.249695 495.292023,257.361206 493.544769,248.348434 
	C492.195801,241.390137 488.090576,238.308090 479.770355,238.217026 
	C472.461761,238.137009 465.149414,238.308762 457.843079,238.158569 
	C454.521210,238.090271 452.931793,239.146057 453.011932,242.685059 
	C453.158569,249.160431 453.160461,255.643860 453.013275,262.119171 
	C452.934814,265.569611 454.301666,266.804291 457.731812,266.724121 
	C466.365082,266.522278 475.004547,266.583282 484.455017,266.344757 
z"/>
<path fill="#000000" opacity="1.000000" stroke="none" 
	d="
M604.960083,415.998535 
	C604.919617,368.706238 604.882874,321.913513 604.837708,275.120789 
	C604.817322,254.005188 615.703308,237.785538 634.740601,232.117233 
	C650.882568,227.311005 665.700439,230.979614 677.445068,243.010544 
	C689.517700,255.377411 692.634949,270.609650 686.948608,286.921509 
	C681.274597,303.198059 669.221069,312.121155 652.127625,314.351929 
	C643.831604,315.434601 635.991638,313.631226 627.389893,310.308685 
	C627.389893,359.701202 627.389893,408.335388 627.389893,457.317413 
	C625.908508,457.128937 625.095093,457.278015 624.708069,456.939545 
	C613.337219,446.993408 601.474304,437.286469 604.933228,419.490723 
	C605.120361,418.527802 604.959290,417.497223 604.960083,415.998535 
M628.541321,279.716553 
	C633.240417,289.318085 641.381592,294.072571 650.536072,292.561462 
	C658.575806,291.234436 665.821106,283.644135 666.707031,275.620483 
	C667.720581,266.440918 664.212158,259.082031 656.665894,254.976501 
	C649.392395,251.019424 642.182983,251.399811 635.516052,256.259460 
	C628.272156,261.539612 625.793152,269.870453 628.541321,279.716553 
z"/>
<path fill="#000000" opacity="1.000000" stroke="none" 
	d="
M382.676819,280.988922 
	C382.675690,260.834167 382.802185,241.175720 382.580200,221.521179 
	C382.527466,216.852753 384.115601,215.370270 388.624481,215.610275 
	C394.438751,215.919800 400.281464,215.715530 406.111786,215.694992 
	C408.373016,215.687027 410.137115,216.242752 410.125122,218.942703 
	C410.006073,245.751465 411.625183,272.632202 409.425476,299.346558 
	C407.784607,319.273926 397.584900,329.019623 378.084442,332.780457 
	C365.714020,335.166199 353.216400,335.089691 340.873627,332.487305 
	C320.908844,328.277832 310.030243,315.173523 309.850342,294.768250 
	C309.634460,270.282379 309.919281,245.792358 309.773041,221.305420 
	C309.746643,216.883530 311.277893,215.388931 315.590698,215.616013 
	C320.906616,215.895966 326.267059,215.955994 331.573792,215.598740 
	C336.362488,215.276382 337.441956,217.318115 337.407715,221.705200 
	C337.239929,243.193314 337.682617,264.690491 337.248016,286.171082 
	C336.770966,309.749207 349.526886,311.827240 365.138977,310.473389 
	C377.231873,309.424683 382.427429,303.209412 382.655731,290.981781 
	C382.714813,287.817688 382.672577,284.651733 382.676819,280.988922 
z"/>
<path fill="#000000" opacity="1.000000" stroke="none" 
	d="
M807.055237,241.363281 
	C808.688904,237.168762 812.044434,238.649887 814.521118,238.797089 
	C818.987305,239.062576 820.438843,236.998276 820.664429,233.032227 
	C820.834045,230.050018 821.304749,227.085876 821.603455,224.109894 
	C822.344727,216.725494 822.330505,216.674911 829.686096,215.857025 
	C833.980591,215.379501 838.299072,215.121002 842.601379,214.708115 
	C845.816833,214.399536 847.170227,215.806931 847.105713,219.015198 
	C847.005371,224.009766 847.198975,229.011429 847.046936,234.003357 
	C846.944336,237.370758 848.122742,238.876801 851.668823,238.714722 
	C856.155884,238.509644 860.661011,238.734772 865.157043,238.675491 
	C867.866150,238.639786 869.148987,239.824890 869.128235,242.551544 
	C869.095337,246.881485 869.082581,251.213089 869.167725,255.541916 
	C869.232300,258.824860 867.483948,259.983978 864.489624,259.899689 
	C860.164856,259.777924 855.831421,259.789459 851.517944,259.501404 
	C848.421326,259.294647 846.947205,260.083160 847.000305,263.569122 
	C847.180359,275.391876 846.978943,287.220520 847.165771,299.043060 
	C847.299988,307.534332 850.952087,310.729553 859.408691,310.334900 
	C870.303284,309.826477 870.303284,309.826477 870.330566,320.898010 
	C870.357239,331.715057 870.361450,331.834412 859.446411,332.220947 
	C852.641846,332.461914 845.805176,332.804077 839.059814,331.241211 
	C829.944763,329.129272 824.178406,323.623230 821.625916,314.614471 
	C819.221924,306.129578 819.784546,297.453888 819.747375,288.813324 
	C819.713623,280.985321 819.555359,273.150818 819.817688,265.331421 
	C819.958557,261.134399 818.348206,259.822083 814.312988,259.826294 
	C806.923401,259.833954 806.914551,259.649536 806.919128,252.314697 
	C806.921265,248.817490 806.963562,245.320312 807.055237,241.363281 
z"/>
<path fill="#000000" opacity="1.000000" stroke="none" 
	d="
M563.338501,279.000061 
	C563.339539,287.988312 563.439514,296.478241 563.290466,304.963837 
	C563.234009,308.176208 564.204956,309.319763 567.589539,309.214813 
	C576.069824,308.951935 584.564575,309.195251 593.049927,309.038727 
	C596.438599,308.976257 597.980408,310.292572 597.956604,313.666718 
	C597.922607,318.492462 597.967651,323.319122 598.018494,328.144958 
	C598.048523,330.994263 596.873657,332.371246 593.845154,332.360382 
	C576.036865,332.296387 558.227966,332.286469 540.419800,332.371155 
	C537.060669,332.387146 536.292664,330.936127 536.282532,327.803741 
	C536.192383,299.865753 537.080322,271.928741 536.231384,243.987991 
	C535.984131,235.850662 536.510986,227.691635 536.586731,219.541641 
	C536.612183,216.804749 537.793701,215.654617 540.511169,215.685684 
	C546.335449,215.752274 552.170349,215.891266 557.983337,215.621536 
	C562.131775,215.429016 563.448303,216.985229 563.413635,221.080368 
	C563.251526,240.219101 563.339600,259.359955 563.338501,279.000061 
z"/>
<path fill="#000000" opacity="1.000000" stroke="none" 
	d="
M715.016968,332.331055 
	C702.055481,332.146912 703.729492,334.063934 703.668457,321.471893 
	C703.564331,299.973907 703.649475,278.475098 703.575989,256.976898 
	C703.560059,252.324051 703.191833,247.673035 703.018921,243.019928 
	C702.903442,239.910309 704.302551,238.470810 707.546631,238.641769 
	C710.870239,238.816879 714.210754,238.665833 717.543823,238.668015 
	C725.587341,238.673279 725.587341,238.675735 727.935059,246.326599 
	C729.424988,246.903152 729.950134,245.509048 730.717590,244.813980 
	C739.196045,237.135529 749.454529,237.012268 759.922668,237.956741 
	C762.213501,238.163422 763.393494,239.628372 763.059570,242.149963 
	C762.383484,247.255356 761.766296,252.370239 761.237793,257.492859 
	C760.920288,260.569183 759.144897,261.454285 756.413330,260.988892 
	C752.918274,260.393372 749.468323,260.689972 745.975708,261.085480 
	C734.900024,262.339783 730.432861,267.101410 730.354065,278.422211 
	C730.243958,294.253662 730.142639,310.089447 730.415955,325.916840 
	C730.501343,330.862518 729.213928,333.071777 724.004883,332.411011 
	C721.215820,332.057251 718.346375,332.337311 715.016968,332.331055 
z"/>
<path fill="#000000" opacity="1.000000" stroke="none" 
	d="
M200.294266,405.533997 
	C187.211838,407.360657 174.962036,405.961090 162.982834,401.015686 
	C174.495941,400.327850 185.718918,399.003693 196.279373,393.381287 
	C166.824005,390.951111 141.984665,379.502991 123.352325,356.331543 
	C104.884216,333.364380 97.326973,307.044647 100.437218,277.622498 
	C102.868401,310.791229 115.384125,339.123993 141.306763,360.406616 
	C167.418869,381.844727 197.376907,388.183441 230.707886,379.813934 
	C229.745895,384.430939 225.924606,385.827576 224.761520,389.474457 
	C239.380600,377.745941 255.711594,368.667084 271.430298,358.038605 
	C272.485199,361.484985 270.892334,364.227173 270.521423,367.527100 
	C275.835449,361.159210 274.846039,351.480103 282.609375,346.750244 
	C284.291504,365.823364 264.307220,393.798645 244.036545,402.355438 
	C249.306763,393.329376 255.043594,385.369537 256.757355,374.350311 
	C241.005371,391.560608 223.016190,402.478973 200.294266,405.533997 
z"/>
<path fill="#000000" opacity="1.000000" stroke="none" 
	d="
M641.125244,371.999969 
	C641.130920,393.850647 641.130920,415.201324 641.130920,437.454865 
	C644.456116,435.162994 643.627625,432.810699 643.632141,430.847626 
	C643.691284,404.863159 643.752808,378.878052 643.595093,352.894409 
	C643.568237,348.464905 644.382019,345.410858 649.327454,344.717621 
	C651.967773,344.347473 652.688477,342.400055 652.665161,339.949341 
	C652.619263,335.119568 652.674561,330.288818 652.691467,325.458466 
	C652.697449,323.750916 652.740051,321.995575 654.767822,321.383514 
	C659.495178,319.956696 664.245605,318.606445 669.539978,317.063995 
	C670.707764,322.244781 670.367126,327.171021 669.845093,332.039795 
	C669.566589,334.637543 667.365051,335.386627 664.987671,335.336426 
	C662.127441,335.276062 661.235107,336.872406 661.250854,339.444733 
	C661.275330,343.441895 660.814392,347.486389 661.277405,351.426422 
	C662.043030,357.941528 659.494507,362.372589 654.503479,366.388092 
	C646.562622,372.776794 646.763855,378.691101 654.440063,385.561554 
	C655.308777,386.339050 656.189392,387.103302 657.060364,387.878296 
	C662.285156,392.527618 662.420776,395.404510 657.593018,400.312103 
	C655.373901,402.567932 653.044067,404.716339 650.856873,407.001892 
	C647.352722,410.663574 647.374390,412.868866 650.908997,416.331360 
	C652.334961,417.728210 653.863403,419.023956 655.384094,420.320129 
	C663.767334,427.465851 664.015503,436.218414 655.913635,443.679443 
	C650.771057,448.415283 645.494873,453.006195 640.265808,457.647614 
	C638.353455,459.345062 636.178955,461.099731 633.579102,459.938599 
	C631.173218,458.864075 631.917358,456.165314 631.916748,454.092560 
	C631.904236,411.617981 631.912964,369.143311 632.027527,326.668976 
	C632.033997,324.270050 630.529968,320.498596 635.544434,320.675598 
	C639.786377,320.825287 641.189819,322.837585 641.140747,327.027679 
	C640.967224,341.849823 641.101746,356.675568 641.125244,371.999969 
z"/>
<path fill="#000000" opacity="1.000000" stroke="none" 
	d="
M798.345581,245.089935 
	C798.355347,272.387726 798.241211,299.198425 798.482605,326.005951 
	C798.528381,331.089508 797.028931,332.828735 791.970215,332.436371 
	C786.672668,332.025513 781.318970,332.255280 775.991943,332.340881 
	C773.013977,332.388794 771.789001,331.065460 771.791443,328.148315 
	C771.815369,299.673676 771.807007,271.199005 771.785278,242.724380 
	C771.783264,240.106918 772.788147,238.669296 775.595154,238.691864 
	C781.922241,238.742767 788.251465,238.789505 794.577087,238.679977 
	C799.252563,238.599030 798.167480,241.947708 798.345581,245.089935 
z"/>
<path fill="#000000" opacity="1.000000" stroke="none" 
	d="
M879.939697,337.951355 
	C880.174194,330.961853 880.174194,330.955444 886.736877,330.949402 
	C902.359680,330.935059 917.986267,331.118378 933.603210,330.810822 
	C938.888977,330.706696 939.418518,333.140167 939.492554,337.452515 
	C939.568970,341.895477 938.392517,343.570374 933.655334,343.492157 
	C917.538208,343.225922 901.413513,343.317841 885.293030,343.440430 
	C881.604004,343.468475 879.480713,342.482147 879.939697,337.951355 
z"/>
<path fill="#000000" opacity="1.000000" stroke="none" 
	d="
M799.535034,211.836365 
	C799.796509,214.066498 800.174377,215.891708 800.096680,217.697281 
	C799.690735,227.120422 797.348877,229.315781 787.916321,229.353928 
	C786.417114,229.359985 784.917969,229.349213 783.418762,229.356125 
	C779.071228,229.376175 774.097107,229.962158 772.101990,225.059357 
	C769.651733,219.038132 769.693726,212.649155 772.802856,206.706558 
	C773.953308,204.507568 776.373901,203.901413 778.794983,203.658859 
	C782.781067,203.259521 786.742126,203.306671 790.748108,203.580124 
	C795.873596,203.930008 798.759155,206.350479 799.535034,211.836365 
z"/>
</svg>